<?xml version="1.0" standalone="no"?>
<!DOCTYPE svg PUBLIC "-//W3C//DTD SVG 20010904//EN"
 "http://www.w3.org/TR/2001/REC-SVG-20010904/DTD/svg10.dtd">
<svg version="1.0" xmlns="http://www.w3.org/2000/svg"
 width="300.000000pt" height="302.000000pt" viewBox="0 0 300.000000 302.000000"
 preserveAspectRatio="xMidYMid meet">
<metadata>
Created by potrace 1.10, written by Peter Selinger 2001-2011
</metadata>
<g transform="translate(0.000000,302.000000) scale(0.100000,-0.100000)"
fill="#000000" stroke="none">
<path d="M562 3000 c0 -14 2 -19 5 -12 2 6 2 18 0 25 -3 6 -5 1 -5 -13z"/>
<path d="M1968 2963 c7 -3 16 -2 19 1 4 3 -2 6 -13 5 -11 0 -14 -3 -6 -6z"/>
<path d="M2481 2944 c0 -11 3 -14 6 -6 3 7 2 16 -1 19 -3 4 -6 -2 -5 -13z"/>
<path d="M538 2770 c2 -63 8 -119 12 -123 10 -11 3 160 -8 203 -7 25 -8 1 -4
-80z"/>
<path d="M2026 2798 c-75 -8 -136 -29 -136 -47 0 -5 -16 -21 -35 -36 -34 -26
-37 -26 -61 -10 -14 9 -62 20 -107 25 -45 5 -104 13 -132 19 -66 12 -133 8
-225 -14 -78 -20 -139 -45 -108 -45 9 0 20 5 23 10 3 6 19 10 34 10 16 0 48 7
72 16 43 15 189 21 210 8 5 -3 50 -9 98 -14 49 -5 109 -17 133 -28 l44 -19 32
28 c18 16 32 34 32 39 0 20 68 39 161 46 52 3 97 8 101 10 3 2 8 0 10 -4 5
-13 68 -23 68 -12 0 6 -15 10 -32 10 -25 0 -29 3 -18 10 19 12 -50 11 -164 -2z"/>
<path d="M2451 2774 c0 -11 3 -14 6 -6 3 7 2 16 -1 19 -3 4 -6 -2 -5 -13z"/>
<path d="M769 2755 c-90 -59 -143 -143 -152 -240 -5 -55 -37 -153 -62 -188
-18 -26 -68 -184 -61 -195 4 -8 -17 -188 -35 -286 -7 -37 -7 -61 -1 -65 5 -3
9 -17 9 -31 -1 -14 5 -54 12 -89 20 -93 33 -47 14 49 -14 76 -14 104 6 285 6
55 13 123 15 150 4 43 23 109 51 178 5 12 11 14 19 8 8 -6 12 4 13 36 2 48 27
98 44 88 12 -8 16 7 22 72 2 29 0 50 -5 47 -4 -3 -8 -29 -8 -57 0 -37 -3 -48
-10 -37 -16 24 -12 88 8 111 9 11 49 54 89 95 l71 74 84 -4 c67 -3 91 -8 128
-29 66 -39 73 -33 10 8 -46 30 -63 35 -115 36 -33 0 -71 2 -85 4 -15 2 -40 -6
-61 -20z m-29 -48 c0 -2 -14 -16 -32 -33 -18 -16 -26 -20 -18 -9 19 25 50 52
50 42z"/>
<path d="M2250 2775 c0 -4 16 -27 35 -50 19 -23 31 -46 27 -50 -4 -5 -2 -5 5
-1 7 4 12 -1 13 -11 0 -10 2 -67 3 -128 2 -60 8 -121 14 -135 6 -14 14 -34 17
-44 4 -10 9 -17 11 -14 3 3 -4 31 -15 63 -11 32 -18 61 -15 63 3 3 5 0 5 -6 0
-7 7 -12 15 -12 8 0 15 -5 15 -12 0 -6 3 -9 6 -5 4 3 -3 18 -14 32 -17 21 -21
41 -21 106 0 51 -6 92 -16 113 -16 33 -85 108 -85 91z"/>
<path d="M858 2720 c21 -24 13 -34 -10 -14 l-23 19 19 -22 c10 -13 22 -20 27
-18 9 6 28 -13 64 -59 38 -50 30 -50 -18 1 -28 29 -44 40 -44 30 0 -9 3 -14 7
-12 9 5 40 -38 200 -273 45 -65 105 -149 135 -187 30 -38 55 -77 55 -86 0 -18
15 -32 39 -36 7 -1 18 -6 24 -12 8 -8 4 -11 -15 -11 -17 0 -32 -9 -44 -27 -9
-15 -27 -38 -39 -51 -12 -13 -39 -60 -59 -105 -21 -45 -45 -96 -53 -114 -9
-17 -13 -37 -10 -45 3 -7 6 -3 6 10 1 12 6 22 11 22 6 0 10 6 10 13 0 7 20 54
44 104 41 84 106 173 127 173 4 0 27 -27 49 -60 l41 -60 -32 -48 c-18 -26 -70
-86 -115 -133 -55 -56 -92 -105 -108 -140 -32 -72 -41 -103 -27 -95 6 4 11 14
11 23 0 48 133 224 163 215 5 -1 6 2 3 6 -3 5 4 18 15 28 12 11 38 45 59 77
l38 57 5 -52 c3 -29 10 -70 15 -91 9 -34 8 -38 -6 -31 -31 12 -92 21 -92 13 0
-11 38 -21 51 -13 8 4 9 3 5 -4 -4 -7 6 -13 27 -17 29 -6 36 -13 46 -47 7 -22
14 -38 16 -36 4 4 -18 100 -41 178 -15 52 -19 110 -10 160 4 23 3 27 -2 11
-10 -32 -32 -39 -32 -12 0 12 -7 24 -15 27 -8 4 -15 12 -15 19 0 7 -8 16 -17
20 -16 6 -15 8 7 20 18 11 20 14 8 15 -9 0 -21 7 -26 17 -6 9 -16 14 -26 10
-11 -5 -18 1 -22 19 -9 36 4 43 26 14 11 -14 20 -20 20 -15 0 6 -21 30 -46 54
-25 24 -65 74 -90 112 -24 37 -50 72 -57 76 -7 4 -39 45 -71 91 -31 45 -61 82
-65 82 -5 0 -11 18 -14 39 -5 41 -68 130 -117 166 -14 10 -19 12 -12 5z m328
-466 c19 -30 49 -71 67 -92 18 -20 23 -30 13 -22 -11 8 -43 47 -71 85 -63 86
-72 101 -56 90 7 -4 28 -31 47 -61z"/>
<path d="M1115 2695 c46 -40 45 -40 71 -19 18 15 18 15 -4 9 -16 -5 -33 1 -57
19 -49 38 -57 31 -10 -9z"/>
<path d="M1948 2661 l-37 -36 14 -40 c19 -54 75 -105 117 -106 103 -4 131 18
153 114 4 21 3 27 -6 21 -9 -5 -10 -2 -6 9 3 10 2 17 -3 17 -6 0 -9 6 -7 13 1
6 -4 11 -10 10 -7 -2 -13 1 -13 6 0 16 -56 32 -110 30 -47 -2 -59 -7 -92 -38z
m183 8 c13 -7 28 -12 32 -11 5 1 6 -2 3 -7 -4 -5 -1 -22 4 -37 13 -34 -3 -88
-33 -109 -12 -9 -43 -15 -73 -15 -48 0 -55 3 -88 40 -40 45 -44 58 -18 67 23
9 33 25 26 45 -3 10 3 21 13 27 10 6 13 11 8 11 -6 0 -22 -7 -35 -16 l-25 -16
23 20 c18 17 34 20 80 18 32 -2 69 -9 83 -17z m-168 -46 c-7 -2 -21 -2 -30 0
-10 3 -4 5 12 5 17 0 24 -2 18 -5z"/>
<path d="M787 2598 c-30 -32 -44 -54 -37 -58 6 -4 19 -22 28 -41 22 -44 66
-70 84 -50 11 11 11 13 0 6 -15 -8 -51 20 -62 49 -5 14 0 26 19 44 18 16 22
25 13 29 -6 2 -9 10 -6 15 4 7 2 8 -4 4 -16 -10 -15 0 4 29 24 37 14 30 -39
-27z m9 -44 c-22 -16 -36 -18 -36 -6 0 11 43 32 50 25 3 -3 -4 -11 -14 -19z"/>
<path d="M773 2615 c-3 -9 -3 -18 -1 -21 3 -3 8 4 11 16 6 23 -1 27 -10 5z"/>
<path d="M562 2580 c0 -19 2 -27 5 -17 2 9 2 25 0 35 -3 9 -5 1 -5 -18z"/>
<path d="M521 2484 c0 -11 3 -14 6 -6 3 7 2 16 -1 19 -3 4 -6 -2 -5 -13z"/>
<path d="M953 2483 c-9 -25 -39 -53 -49 -45 -4 4 -4 1 0 -5 12 -21 76 31 76
61 0 14 -21 4 -27 -11z"/>
<path d="M622 2413 c-15 -38 -26 -79 -20 -73 13 12 46 100 39 100 -5 0 -13
-12 -19 -27z"/>
<path d="M565 2420 c-3 -5 -1 -10 4 -10 6 0 11 5 11 10 0 6 -2 10 -4 10 -3 0
-8 -4 -11 -10z"/>
<path d="M2392 2415 c-1 -5 17 -62 38 -125 22 -63 37 -99 34 -80 -4 19 -15 58
-25 85 -11 30 -15 51 -9 53 15 5 12 22 -3 22 -7 0 -18 12 -24 28 -6 15 -11 23
-11 17z"/>
<path d="M2578 2413 c46 -2 118 -2 160 0 42 1 5 3 -83 3 -88 0 -123 -2 -77 -3z"/>
<path d="M2863 2413 c26 -2 68 -2 95 0 26 2 4 3 -48 3 -52 0 -74 -1 -47 -3z"/>
<path d="M2462 2359 c-9 -4 37 -7 103 -8 66 0 152 -3 190 -5 39 -3 59 -3 45 0
-14 3 -32 7 -40 10 -22 8 -278 10 -298 3z"/>
<path d="M2778 2363 c6 -2 18 -2 25 0 6 3 1 5 -13 5 -14 0 -19 -2 -12 -5z"/>
<path d="M2863 2363 c20 -2 54 -2 75 0 20 2 3 4 -38 4 -41 0 -58 -2 -37 -4z"/>
<path d="M2863 2333 c9 -2 25 -2 35 0 9 3 1 5 -18 5 -19 0 -27 -2 -17 -5z"/>
<path d="M2933 2323 c9 -2 23 -2 30 0 6 3 -1 5 -18 5 -16 0 -22 -2 -12 -5z"/>
<path d="M560 2268 c-10 -24 -21 -56 -24 -73 -7 -32 -5 -30 30 58 26 66 22 78
-6 15z"/>
<path d="M940 2300 c-9 -6 -10 -10 -3 -10 6 0 15 5 18 10 8 12 4 12 -15 0z"/>
<path d="M130 2280 l-95 -6 107 -2 c63 -1 109 2 113 8 3 6 -2 9 -12 8 -10 -1
-61 -5 -113 -8z"/>
<path d="M319 2277 c4 -4 48 -4 97 1 l89 10 -97 -2 c-53 0 -93 -5 -89 -9z"/>
<path d="M802 2246 c-43 -15 -80 -51 -89 -84 -5 -20 0 -31 22 -50 25 -21 36
-24 92 -20 35 2 68 9 73 14 7 7 -5 8 -39 1 -55 -12 -108 -1 -124 24 -29 46 34
109 108 109 30 0 36 3 25 10 -19 12 -26 12 -68 -4z"/>
<path d="M2053 2250 c-13 -5 -23 -15 -23 -21 0 -8 5 -7 16 2 9 7 37 16 63 20
l46 6 -40 1 c-22 0 -50 -3 -62 -8z"/>
<path d="M2421 2244 c0 -11 3 -14 6 -6 3 7 2 16 -1 19 -3 4 -6 -2 -5 -13z"/>
<path d="M1407 2243 c-13 -12 -7 -25 8 -19 17 6 21 -9 5 -17 -6 -3 -5 -4 1 -3
7 1 16 12 20 24 7 18 5 22 -10 22 -10 0 -21 -3 -24 -7z"/>
<path d="M1555 2239 c-4 -6 -5 -13 -2 -16 7 -7 27 6 27 18 0 12 -17 12 -25 -2z"/>
<path d="M257 2228 c-7 -4 24 -5 68 -1 44 3 82 8 85 10 9 8 -141 -1 -153 -9z"/>
<path d="M925 2221 c17 -10 32 -17 34 -15 7 7 -33 33 -49 34 -8 0 -1 -8 15
-19z"/>
<path d="M178 2213 c6 -2 18 -2 25 0 6 3 1 5 -13 5 -14 0 -19 -2 -12 -5z"/>
<path d="M2429 2182 c5 -34 6 -35 9 -8 2 16 0 32 -5 37 -5 5 -7 -7 -4 -29z"/>
<path d="M2026 2179 c32 -35 118 -79 149 -78 16 1 15 2 -5 8 -59 19 -123 56
-133 78 -5 12 -17 23 -25 23 -11 0 -7 -9 14 -31z"/>
<path d="M981 2188 c0 -9 -8 -24 -17 -32 -8 -9 -11 -16 -6 -16 16 0 34 28 29
47 -4 16 -5 16 -6 1z"/>
<path d="M2478 2110 c8 -79 8 -101 -6 -315 -9 -134 -17 -193 -41 -279 -17 -60
-28 -113 -25 -118 10 -15 -91 -211 -146 -283 -51 -68 -146 -155 -169 -155 -6
0 -11 -4 -11 -10 0 -5 5 -10 12 -10 6 0 8 -3 5 -6 -4 -4 -13 -2 -20 4 -14 12
-27 6 -27 -11 0 -5 16 -7 39 -3 46 7 54 -1 102 -94 32 -61 34 -72 39 -193 3
-79 9 -130 16 -135 7 -4 16 -61 21 -137 l10 -130 1 101 c1 56 -5 138 -13 182
-8 43 -19 122 -24 173 -8 82 -36 174 -61 199 -24 23 -59 80 -49 80 15 0 116
98 140 137 27 43 92 58 213 49 50 -3 102 -9 115 -12 18 -5 22 -4 16 5 -5 9 0
12 16 10 13 -2 26 -1 28 1 4 6 -39 80 -46 80 -3 0 4 -16 16 -35 l21 -36 -150
5 c-103 3 -150 2 -152 -6 -2 -6 -9 -9 -16 -7 -7 3 2 32 26 84 53 112 65 142
58 153 -5 8 25 116 36 127 3 3 22 -33 43 -80 21 -47 41 -85 44 -85 4 0 7 -10
8 -21 1 -12 9 -29 17 -38 9 -10 16 -23 16 -29 0 -7 4 -12 9 -12 11 0 -17 67
-85 201 -45 91 -46 93 -35 148 5 31 13 115 16 186 4 72 10 150 14 175 6 42 2
80 -19 170 -5 22 -6 11 -2 -30z"/>
<path d="M2283 2144 c-3 -9 -20 -22 -37 -30 -17 -7 -25 -13 -18 -14 21 0 51
19 62 40 6 11 8 20 5 20 -3 0 -8 -7 -12 -16z"/>
<path d="M404 2128 c-16 -4 -44 -10 -64 -13 -19 -3 -60 -10 -90 -15 -30 -5
-71 -12 -90 -14 -81 -11 -160 -29 -160 -36 0 -4 10 -6 23 -3 12 2 116 19 232
38 115 19 213 35 217 35 4 0 8 4 8 10 0 11 -31 10 -76 -2z"/>
<path d="M2447 2100 c3 -25 7 -47 9 -49 8 -9 2 55 -6 74 -6 13 -7 5 -3 -25z"/>
<path d="M1487 2059 c10 -10 92 -26 83 -16 -3 3 -25 10 -49 16 -27 6 -40 6
-34 0z"/>
<path d="M1395 2050 c3 -5 10 -10 16 -10 5 0 9 5 9 10 0 6 -7 10 -16 10 -8 0
-12 -4 -9 -10z"/>
<path d="M1594 2045 c-10 -8 -14 -15 -8 -15 5 0 14 4 20 9 5 5 18 11 29 14 20
5 19 5 -1 6 -11 0 -29 -6 -40 -14z"/>
<path d="M1687 2034 c15 -15 34 -27 44 -28 19 -1 95 -87 115 -131 8 -18 13
-23 14 -13 0 25 -92 141 -126 157 -16 8 -33 20 -37 28 -4 7 -14 13 -22 13 -9
0 -4 -10 12 -26z"/>
<path d="M412 1965 c0 -16 2 -22 5 -12 2 9 2 23 0 30 -3 6 -5 -1 -5 -18z"/>
<path d="M1510 1934 c0 -8 5 -12 10 -9 6 4 8 11 5 16 -9 14 -15 11 -15 -7z"/>
<path d="M1760 1936 c0 -9 11 -39 25 -66 14 -27 25 -56 25 -65 0 -8 3 -15 8
-15 4 0 6 19 3 43 -2 23 -6 36 -9 29 -4 -14 -31 29 -38 62 -5 25 -14 33 -14
12z"/>
<path d="M1636 1927 c3 -10 9 -15 12 -12 3 3 0 11 -7 18 -10 9 -11 8 -5 -6z"/>
<path d="M376 1818 c-15 -62 -39 -147 -51 -188 -13 -41 -49 -165 -80 -275
-119 -416 -122 -425 -110 -413 6 6 122 391 171 568 20 74 48 173 61 220 36
130 52 200 45 200 -4 0 -20 -51 -36 -112z"/>
<path d="M1520 1889 c0 -5 5 -7 10 -4 6 3 10 8 10 11 0 2 -4 4 -10 4 -5 0 -10
-5 -10 -11z"/>
<path d="M1656 1887 c3 -10 9 -15 12 -12 3 3 0 11 -7 18 -10 9 -11 8 -5 -6z"/>
<path d="M1443 1868 c5 -26 132 -124 141 -109 3 4 -12 20 -32 35 -21 14 -51
40 -67 56 -30 31 -47 38 -42 18z"/>
<path d="M1550 1851 c0 -6 4 -13 10 -16 6 -3 7 1 4 9 -7 18 -14 21 -14 7z"/>
<path d="M1870 1838 c0 -9 4 -19 9 -23 5 -3 9 -18 9 -33 0 -15 5 -38 11 -52 9
-21 10 -15 5 30 -6 53 -34 117 -34 78z"/>
<path d="M1592 1820 c0 -14 2 -19 5 -12 2 6 2 18 0 25 -3 6 -5 1 -5 -13z"/>
<path d="M1686 1823 c-6 -14 -5 -15 5 -6 7 7 10 15 7 18 -3 3 -9 -2 -12 -12z"/>
<path d="M1598 1772 c-12 -43 -1 -216 15 -248 15 -29 57 -73 57 -60 0 3 13 0
29 -9 41 -21 47 -59 22 -142 -20 -66 -64 -141 -127 -217 -30 -35 -35 -37 -88
-37 -65 0 -108 21 -145 73 -14 18 -31 37 -38 41 -21 13 -105 148 -100 161 3 6
32 27 67 46 34 19 84 50 111 68 26 17 53 32 58 32 4 0 14 7 21 15 29 35 73 6
85 -55 4 -19 12 -52 18 -73 10 -38 11 -38 51 -33 23 3 42 5 44 5 1 1 2 21 2
44 0 43 -21 77 -47 77 -5 0 -18 9 -28 20 -10 11 -26 20 -36 20 -10 0 -21 5
-25 12 -5 8 -2 9 11 4 17 -6 17 -5 1 16 -9 13 -21 33 -28 46 -16 31 -28 28
-19 -5 4 -16 13 -28 19 -28 7 0 12 -4 12 -10 -1 -5 -9 -9 -18 -7 -10 1 -55
-20 -101 -48 -45 -27 -85 -50 -87 -50 -10 0 -119 -73 -122 -81 -2 -5 -8 -6
-14 -3 -28 17 74 -139 131 -201 84 -92 107 -104 187 -105 l71 0 91 88 c89 85
145 170 134 201 -3 8 0 11 6 7 25 -15 19 14 -8 45 -21 24 -29 41 -25 59 2 14
7 48 11 75 6 37 9 44 13 27 3 -13 7 37 7 110 l2 133 -9 -96 c-4 -54 -17 -136
-28 -183 -22 -90 -20 -111 13 -137 19 -15 19 -16 -7 -73 -32 -69 -141 -205
-154 -192 -5 5 22 56 30 56 4 0 7 5 7 10 0 6 9 20 19 31 10 11 24 40 31 65 7
24 17 47 21 50 5 3 9 17 9 31 0 16 4 23 13 20 7 -2 0 21 -16 54 -15 33 -30 59
-33 59 -3 0 -2 -4 1 -10 3 -5 3 -10 -2 -10 -12 0 -39 20 -28 20 34 1 35 17 4
86 -17 38 -40 82 -51 97 -11 16 -23 52 -27 80 -5 40 -8 47 -13 29z m38 -129
c10 -16 19 -35 21 -44 1 -9 11 -37 22 -62 16 -37 17 -46 6 -51 -20 -7 -45 38
-45 81 -1 31 -3 35 -11 20 -6 -9 -7 -27 -4 -40 4 -16 3 -18 -3 -7 -12 19 -21
130 -11 130 3 0 15 -12 25 -27z m-9 -203 c35 -15 50 -50 34 -78 -6 -9 -11 -14
-11 -10 0 4 -12 3 -26 -2 -21 -9 -25 -8 -21 4 3 8 2 16 -2 18 -5 2 -12 23 -16
47 -4 24 -3 41 1 39 5 -3 23 -11 41 -18z"/>
<path d="M1712 1750 c0 -14 2 -19 5 -12 2 6 2 18 0 25 -3 6 -5 1 -5 -13z"/>
<path d="M1620 1739 c0 -8 91 -59 105 -59 3 0 5 7 5 16 0 11 -5 14 -16 10 -22
-8 -40 4 -23 16 9 5 3 6 -16 2 -20 -4 -26 -3 -17 4 11 7 8 11 -12 14 -14 3
-26 1 -26 -3z"/>
<path d="M1147 1698 c-8 -13 -23 -32 -34 -43 -19 -21 -46 -75 -40 -81 1 -2 11
12 22 31 23 44 36 45 29 3 -4 -30 -4 -31 6 -9 6 14 9 30 6 38 -3 7 -1 15 3 18
9 5 33 65 27 65 -2 0 -10 -10 -19 -22z"/>
<path d="M1738 1693 c-7 -28 13 -48 31 -30 10 9 11 8 6 -8 -6 -16 -5 -17 4 -5
6 8 10 24 10 35 0 11 -3 14 -6 8 -7 -19 -31 -16 -35 5 -3 14 -5 13 -10 -5z"/>
<path d="M1336 1691 c17 -14 64 -31 64 -22 0 4 -16 13 -37 19 -20 6 -32 8 -27
3z"/>
<path d="M1270 1680 c-8 -5 -10 -10 -5 -10 6 0 17 5 25 10 8 5 11 10 5 10 -5
0 -17 -5 -25 -10z"/>
<path d="M1903 1620 c0 -41 2 -58 4 -37 2 20 2 54 0 75 -2 20 -4 3 -4 -38z"/>
<path d="M1222 1655 c-12 -15 -24 -35 -27 -46 -4 -10 -11 -19 -16 -19 -5 0 -9
-9 -9 -19 0 -11 -5 -21 -11 -23 -13 -4 2 -113 22 -165 17 -46 21 -17 5 38 -20
67 -20 106 2 144 17 29 19 30 96 30 55 0 81 -4 83 -12 6 -16 -19 -17 -33 -3
-8 8 -15 6 -24 -5 -10 -13 -9 -15 6 -16 32 -2 48 2 65 17 14 12 18 12 27 1 7
-8 9 -17 5 -20 -3 -4 -1 -7 5 -7 20 0 22 17 3 34 -10 9 -42 19 -72 22 -30 3
-69 7 -87 9 -19 2 -30 0 -27 -6 4 -5 -1 -9 -9 -9 -21 0 -20 6 5 42 27 37 18
48 -9 13z"/>
<path d="M1721 1634 c0 -11 3 -14 6 -6 3 7 2 16 -1 19 -3 4 -6 -2 -5 -13z"/>
<path d="M1883 1585 c0 -27 2 -38 4 -22 2 15 2 37 0 50 -2 12 -4 0 -4 -28z"/>
<path d="M506 1594 c-9 -36 22 -143 36 -123 7 11 8 8 5 -9 -3 -13 3 -45 14
-70 25 -60 100 -184 107 -178 2 3 -8 25 -22 50 -15 25 -28 49 -29 53 -1 5 -6
7 -10 5 -5 -1 -7 3 -5 10 3 7 -3 28 -13 45 -10 18 -21 44 -23 58 -8 45 -17 65
-26 60 -13 -8 -32 70 -24 100 3 14 4 25 1 25 -3 0 -8 -12 -11 -26z"/>
<path d="M1245 1561 c29 -34 73 -54 103 -46 14 3 28 1 32 -4 4 -8 12 -6 25 3
17 12 14 14 -30 12 -50 -3 -92 11 -130 43 -20 16 -20 16 0 -8z"/>
<path d="M1111 1554 c0 -11 3 -14 6 -6 3 7 2 16 -1 19 -3 4 -6 -2 -5 -13z"/>
<path d="M1902 1510 c0 -19 2 -27 5 -17 2 9 2 25 0 35 -3 9 -5 1 -5 -18z"/>
<path d="M1872 1465 l-2 -70 -27 58 c-14 31 -30 57 -36 57 -5 0 -6 -7 -3 -16
3 -9 7 -34 7 -57 1 -23 4 -32 6 -19 5 26 23 20 23 -7 0 -10 8 -25 17 -32 9 -8
14 -9 10 -2 -4 6 -2 13 3 15 7 2 10 30 7 73 l-3 70 -2 -70z"/>
<path d="M2591 1365 c0 -5 6 -21 14 -35 8 -14 14 -20 14 -15 0 6 -6 21 -14 35
-8 14 -14 21 -14 15z"/>
<path d="M182 1335 c0 -16 2 -22 5 -12 2 9 2 23 0 30 -3 6 -5 -1 -5 -18z"/>
<path d="M171 1284 c0 -11 3 -14 6 -6 3 7 2 16 -1 19 -3 4 -6 -2 -5 -13z"/>
<path d="M2641 1260 c12 -22 24 -38 26 -36 4 4 -37 76 -44 76 -2 0 6 -18 18
-40z"/>
<path d="M660 1265 c0 -3 7 -19 15 -34 8 -16 12 -31 9 -33 -6 -7 95 -118 106
-118 15 0 4 29 -20 54 -12 14 -26 23 -30 21 -4 -3 -13 1 -19 9 -7 8 -8 16 -3
18 5 1 -6 22 -25 46 -18 24 -33 41 -33 37z m110 -140 c13 -14 21 -25 18 -25
-2 0 -15 11 -28 25 -13 14 -21 25 -18 25 2 0 15 -11 28 -25z"/>
<path d="M2842 1188 c-9 -4 -47 -7 -84 -7 -43 -1 -68 -5 -68 -12 0 -7 12 -9
33 -6 17 3 83 9 145 13 61 4 112 9 112 13 0 8 -116 8 -138 -1z"/>
<path d="M2780 1150 l-85 -6 115 -6 c63 -3 131 -8 150 -11 19 -2 23 -2 8 0
-34 5 -37 20 -5 26 31 6 -82 4 -183 -3z"/>
<path d="M2390 1120 c-8 -5 -10 -10 -5 -10 6 0 17 5 25 10 8 5 11 10 5 10 -5
0 -17 -5 -25 -10z"/>
<path d="M2433 1124 c7 -8 118 -6 125 1 3 3 -25 5 -63 5 -38 0 -65 -3 -62 -6z"/>
<path d="M810 1096 c0 -2 8 -10 18 -17 15 -13 16 -12 3 4 -13 16 -21 21 -21
13z"/>
<path d="M615 1044 c-9 -63 0 -66 12 -4 6 27 7 50 3 50 -4 0 -11 -21 -15 -46z"/>
<path d="M810 1064 c0 -11 174 -126 186 -122 5 1 27 -7 49 -19 22 -11 81 -37
130 -58 50 -20 112 -53 139 -73 50 -37 209 -123 428 -230 l117 -57 0 -146 c1
-135 -1 -151 -28 -231 -16 -47 -34 -95 -40 -107 -7 -11 -8 -21 -3 -21 5 0 17
18 27 40 10 22 22 37 26 34 5 -3 9 1 9 9 0 15 25 104 40 143 4 11 4 28 -2 38
-5 9 -10 69 -11 134 l-2 116 -30 15 c-16 8 -37 17 -45 21 -14 6 -215 111 -349
182 -30 15 -57 28 -62 28 -4 0 -25 11 -45 25 -43 29 -39 30 36 10 66 -18 60
-17 60 -6 0 5 -17 12 -37 16 -65 12 -260 83 -232 85 4 0 22 -7 42 -15 19 -8
37 -12 40 -8 4 3 20 0 37 -7 17 -7 62 -14 98 -16 37 -1 72 -3 77 -4 38 -5 153
23 218 53 72 33 103 57 56 42 -16 -5 -19 -4 -14 5 5 9 4 11 -4 6 -6 -4 -9 -12
-6 -17 4 -5 0 -9 -8 -9 -8 0 -39 -11 -68 -24 -30 -13 -83 -27 -119 -30 -74 -8
-224 7 -319 30 -72 18 -236 88 -266 113 -11 9 -29 23 -39 31 -18 13 -19 13
-11 0 8 -13 7 -13 -8 -1 -10 8 -20 11 -24 7 -3 -3 -15 1 -25 11 -10 9 -18 12
-18 7z"/>
<path d="M1600 1030 c0 -10 150 -84 156 -77 7 6 -81 57 -99 57 -11 0 -15 4
-11 12 4 6 3 8 -4 4 -6 -3 -13 -2 -17 4 -8 13 -25 13 -25 0z"/>
<path d="M804 943 c-69 -95 -84 -120 -84 -138 0 -8 -5 -15 -11 -15 -5 0 -8 -4
-5 -9 3 -5 -4 -35 -16 -67 -17 -48 -21 -87 -24 -204 -2 -80 -8 -199 -13 -265
-5 -66 -8 -133 -7 -150 2 -16 4 -46 5 -65 1 -27 4 -31 11 -20 5 8 10 80 10
160 0 80 5 188 10 240 5 52 12 122 15 155 9 94 27 199 37 210 4 5 8 19 8 31 0
12 7 27 15 34 8 7 15 17 15 22 0 10 77 107 95 120 6 5 6 11 -1 18 -8 8 -24 -7
-60 -57z m-117 -335 c-2 -13 -4 -5 -4 17 -1 22 1 32 4 23 2 -10 2 -28 0 -40z"/>
<path d="M196 975 c-3 -9 -6 -22 -5 -28 0 -7 5 -1 10 12 5 13 8 26 5 28 -2 2
-6 -3 -10 -12z"/>
<path d="M605 949 c-4 -6 -5 -12 -2 -15 2 -3 7 2 10 11 7 17 1 20 -8 4z"/>
<path d="M177 915 c-4 -8 -2 -17 3 -20 6 -4 10 3 10 14 0 25 -6 27 -13 6z"/>
<path d="M1970 899 c-30 -16 -44 -27 -30 -23 33 9 77 31 85 44 8 13 8 13 -55
-21z"/>
<path d="M590 905 c0 -8 5 -15 10 -15 6 0 10 7 10 15 0 8 -4 15 -10 15 -5 0
-10 -7 -10 -15z"/>
<path d="M2923 903 c15 -2 39 -2 55 0 15 2 2 4 -28 4 -30 0 -43 -2 -27 -4z"/>
<path d="M2690 885 c7 -8 17 -15 22 -15 5 0 3 7 -6 15 -8 8 -18 15 -22 15 -3
0 -1 -7 6 -15z"/>
<path d="M2755 889 c11 -4 14 -8 6 -8 -8 -1 -11 -4 -8 -7 4 -4 12 -2 19 3 7 6
22 13 33 15 11 3 0 5 -25 5 -32 0 -39 -2 -25 -8z"/>
<path d="M2237 879 c7 -7 15 -10 18 -7 3 3 -2 9 -12 12 -14 6 -15 5 -6 -5z"/>
<path d="M2493 883 c9 -2 23 -2 30 0 6 3 -1 5 -18 5 -16 0 -22 -2 -12 -5z"/>
<path d="M156 855 c-3 -8 -1 -15 4 -15 13 0 22 18 11 24 -5 3 -11 -1 -15 -9z"/>
<path d="M580 858 c0 -9 5 -20 10 -23 13 -8 13 5 0 25 -8 13 -10 13 -10 -2z"/>
<path d="M1845 845 c-53 -25 -80 -31 -71 -16 4 5 -4 7 -16 3 -20 -5 -21 -6 -3
-12 16 -6 14 -9 -15 -18 -18 -7 -31 -14 -28 -17 4 -5 146 51 183 73 34 20 2
11 -50 -13z"/>
<path d="M570 800 c0 -11 2 -20 4 -20 2 0 6 9 9 20 3 11 1 20 -4 20 -5 0 -9
-9 -9 -20z"/>
<path d="M1678 804 c-7 -6 -31 -12 -63 -14 -20 -1 -20 -1 0 -9 11 -5 27 -6 35
-3 23 8 56 32 44 32 -6 0 -13 -3 -16 -6z"/>
<path d="M1458 783 c7 -3 16 -2 19 1 4 3 -2 6 -13 5 -11 0 -14 -3 -6 -6z"/>
<path d="M67 773 c-4 -3 -7 -11 -7 -17 0 -6 5 -5 12 2 6 6 9 14 7 17 -3 3 -9
2 -12 -2z"/>
<path d="M680 759 c0 -5 5 -7 10 -4 6 3 10 8 10 11 0 2 -4 4 -10 4 -5 0 -10
-5 -10 -11z"/>
<path d="M30 660 c-13 -44 -21 -83 -18 -85 2 -3 16 33 30 80 14 47 22 85 18
85 -4 0 -17 -36 -30 -80z"/>
<path d="M560 729 c0 -5 5 -7 10 -4 6 3 10 8 10 11 0 2 -4 4 -10 4 -5 0 -10
-5 -10 -11z"/>
<path d="M562 680 c0 -19 2 -27 5 -17 2 9 2 25 0 35 -3 9 -5 1 -5 -18z"/>
<path d="M985 620 c-3 -6 1 -7 9 -4 18 7 21 14 7 14 -6 0 -13 -4 -16 -10z"/>
<path d="M1064 593 c8 -58 15 -190 9 -170 -2 9 -9 17 -14 17 -10 0 -4 -109 16
-265 l14 -110 -2 105 c-1 58 -5 107 -8 110 -3 3 -9 21 -12 40 -4 21 -3 30 2
22 4 -8 12 -13 17 -12 5 1 10 -4 12 -12 2 -9 0 -8 -7 2 -9 13 -11 13 -11 -2 0
-10 4 -18 8 -18 11 0 27 -48 57 -182 15 -65 31 -118 35 -118 4 0 6 8 4 18 -83
374 -83 374 -94 367 -5 -3 -7 16 -3 44 7 61 -5 201 -18 201 -5 0 -7 -17 -5
-37z"/>
<path d="M71 594 c0 -11 3 -14 6 -6 3 7 2 16 -1 19 -3 4 -6 -2 -5 -13z"/>
<path d="M547 593 c-13 -45 -17 -93 -9 -93 5 0 12 23 15 52 7 52 3 75 -6 41z"/>
<path d="M521 584 c0 -11 3 -14 6 -6 3 7 2 16 -1 19 -3 4 -6 -2 -5 -13z"/>
<path d="M1005 561 c-3 -5 -1 -12 5 -16 5 -3 10 1 10 9 0 18 -6 21 -15 7z"/>
<path d="M591 534 c0 -11 3 -14 6 -6 3 7 2 16 -1 19 -3 4 -6 -2 -5 -13z"/>
<path d="M1932 423 c-17 -60 -33 -117 -36 -128 -4 -11 7 9 25 45 27 57 56 176
46 186 -2 2 -18 -44 -35 -103z"/>
<path d="M1036 507 c3 -10 9 -15 12 -12 3 3 0 11 -7 18 -10 9 -11 8 -5 -6z"/>
<path d="M2242 455 c0 -16 2 -22 5 -12 2 9 2 23 0 30 -3 6 -5 -1 -5 -18z"/>
<path d="M2232 305 c0 -16 2 -22 5 -12 2 9 2 23 0 30 -3 6 -5 -1 -5 -18z"/>
<path d="M2290 245 c0 -32 3 -55 7 -52 7 8 5 98 -2 105 -3 3 -5 -21 -5 -53z"/>
<path d="M2237 225 c-3 -20 1 -58 10 -87 9 -31 13 -71 10 -97 -3 -25 -2 -38 3
-30 4 7 10 54 12 104 3 50 3 79 1 65 -3 -14 -9 -29 -14 -34 -10 -11 -13 15
-10 77 3 47 -5 48 -12 2z"/>
<path d="M1103 93 c1 -45 6 -78 10 -74 4 5 4 41 -2 82 l-9 74 1 -82z"/>
<path d="M2286 97 c-4 -32 -5 -61 -2 -64 7 -8 18 60 14 93 -3 21 -6 13 -12
-29z"/>
<path d="M1824 25 c-4 -9 -4 -19 0 -22 3 -4 6 0 6 8 0 11 2 11 10 -1 8 -13 10
-13 10 2 0 23 -19 33 -26 13z"/>
<path d="M2231 14 c0 -11 3 -14 6 -6 3 7 2 16 -1 19 -3 4 -6 -2 -5 -13z"/>
</g>
</svg>
